<?xml version="1.0" encoding="UTF-8"?>
<svg width="18px" height="21px" viewBox="0 0 18 21" version="1.1" xmlns="http://www.w3.org/2000/svg" xmlns:xlink="http://www.w3.org/1999/xlink">
    <!-- Generator: Sketch 48.1 (47250) - http://www.bohemiancoding.com/sketch -->
    <title>icon_subscriptions</title>
    <desc>Created with Sketch.</desc>
    <defs></defs>
    <g id="MyAwana-Dashboard-New-Version" stroke="none" stroke-width="1" fill="none" fill-rule="evenodd" transform="translate(-155.000000, -562.000000)">
        <g id="Group-5" transform="translate(137.000000, 168.000000)" fill="#666666" fill-rule="nonzero">
            <g id="icon_subscriptions" transform="translate(18.000000, 394.000000)">
                <path d="M15.7116507,9 L8.2883493,9 C8.12938294,9 8,8.776267 8,8.5 C8,8.223733 8.12902651,8 8.2883493,8 L15.7116507,8 C15.8706171,8 16,8.223733 16,8.5 C16,8.776267 15.8709735,9 15.7116507,9 Z" id="Shape"></path>
                <path d="M15.7116507,15 L8.2883493,15 C8.12938294,15 8,14.776267 8,14.5 C8,14.223733 8.12902651,14 8.2883493,14 L15.7116507,14 C15.8706171,14 16,14.223733 16,14.5 C16,14.776267 15.8709735,15 15.7116507,15 Z" id="Shape"></path>
                <path d="M15.03313,1.49579741 L14.7690786,1.49579741 L14.7690786,0.323275862 C14.7690786,0.144827586 14.6217241,0 14.4394264,0 C14.2571287,0 14.1097742,0.144827586 14.1097742,0.323275862 L14.1097742,1.49579741 L12.9559914,1.49579741 L12.9559914,0.323275862 C12.9559914,0.144827586 12.8086369,0 12.6263392,0 C12.4440415,0 12.296687,0.144827586 12.296687,0.323275862 L12.296687,1.49579741 L11.1429042,1.49579741 L11.1429042,0.323275862 C11.1429042,0.144827586 10.9955497,0 10.813252,0 C10.6309543,0 10.4835998,0.144827586 10.4835998,0.323275862 L10.4835998,1.49579741 L9.32981704,1.49579741 L9.32981704,0.323275862 C9.32981704,0.144827586 9.1824625,0 9.00016483,0 C8.81786715,0 8.67051261,0.144827586 8.67051261,0.323275862 L8.67051261,1.49579741 L7.51672985,1.49579741 L7.51672985,0.323275862 C7.51672985,0.144827586 7.36937531,0 7.18707763,0 C7.00477996,0 6.85742542,0.144827586 6.85742542,0.323275862 L6.85742542,1.49579741 L5.70364266,1.49579741 L5.70364266,0.323275862 C5.70364266,0.144827586 5.55628812,0 5.37399044,0 C5.19169276,0 5.04433822,0.144827586 5.04433822,0.323275862 L5.04433822,1.49579741 L3.89055546,1.49579741 L3.89055546,0.323275862 C3.89055546,0.144827586 3.74320092,0 3.56090325,0 C3.37860557,0 3.23125103,0.144827586 3.23125103,0.323275862 L3.23125103,1.49579741 L2.96686995,1.49579741 C1.330806,1.49579741 0,2.80118534 0,4.40528017 L0,18.0905172 C0,19.6946121 1.330806,21 2.96686995,21 L15.03313,21 C16.669194,21 18,19.6946121 18,18.0905172 L18,4.40528017 C18,2.80118534 16.669194,1.49579741 15.03313,1.49579741 Z M17.3406956,18.0908405 C17.3406956,19.3386853 16.305258,20.3537716 15.03313,20.3537716 L2.96686995,20.3537716 C1.69474205,20.3537716 0.659304434,19.3386853 0.659304434,18.0908405 L0.659304434,4.40528017 C0.659304434,3.15743534 1.69474205,2.14234914 2.96686995,2.14234914 L3.23125103,2.14234914 L3.23125103,3.08146552 C3.23125103,3.25991379 3.37860557,3.40474138 3.56090325,3.40474138 C3.74320092,3.40474138 3.89055546,3.25991379 3.89055546,3.08146552 L3.89055546,2.14234914 L5.04433822,2.14234914 L5.04433822,3.08146552 C5.04433822,3.25991379 5.19169276,3.40474138 5.37399044,3.40474138 C5.55628812,3.40474138 5.70364266,3.25991379 5.70364266,3.08146552 L5.70364266,2.14234914 L6.85742542,2.14234914 L6.85742542,3.08146552 C6.85742542,3.25991379 7.00477996,3.40474138 7.18707763,3.40474138 C7.36937531,3.40474138 7.51672985,3.25991379 7.51672985,3.08146552 L7.51672985,2.14234914 L8.67051261,2.14234914 L8.67051261,3.08146552 C8.67051261,3.25991379 8.81786715,3.40474138 9.00016483,3.40474138 C9.1824625,3.40474138 9.32981704,3.25991379 9.32981704,3.08146552 L9.32981704,2.14234914 L10.4835998,2.14234914 L10.4835998,3.08146552 C10.4835998,3.25991379 10.6309543,3.40474138 10.813252,3.40474138 C10.9955497,3.40474138 11.1429042,3.25991379 11.1429042,3.08146552 L11.1429042,2.14234914 L12.296687,2.14234914 L12.296687,3.08146552 C12.296687,3.25991379 12.4440415,3.40474138 12.6263392,3.40474138 C12.8086369,3.40474138 12.9559914,3.25991379 12.9559914,3.08146552 L12.9559914,2.14234914 L14.1097742,2.14234914 L14.1097742,3.08146552 C14.1097742,3.25991379 14.2571287,3.40474138 14.4394264,3.40474138 C14.6217241,3.40474138 14.7690786,3.25991379 14.7690786,3.08146552 L14.7690786,2.14234914 L15.03313,2.14234914 C16.305258,2.14234914 17.3406956,3.15743534 17.3406956,4.40528017 L17.3406956,18.0908405 Z M6.13021263,7.22715517 L4.50964233,9.7700431 C4.4615131,9.84536638 4.38404483,9.89806034 4.29503873,9.91584052 C4.27361134,9.9200431 4.25185429,9.92230603 4.2304269,9.92230603 C4.16251854,9.92230603 4.0959288,9.90193966 4.03988792,9.86282328 L2.69556618,8.92823276 C2.54689303,8.82510776 2.51194989,8.62306034 2.6174386,8.47758621 C2.72226801,8.33178879 2.92797099,8.29719828 3.07697379,8.40064655 L4.13647602,9.13706897 L5.57178177,6.88480603 C5.66804022,6.73351293 5.87110598,6.68696121 6.02604253,6.78200431 C6.17966046,6.87640086 6.22680073,7.07586207 6.13021263,7.22715517 Z M6.13021263,12.9653017 L4.50964233,15.5081897 C4.4615131,15.5835129 4.38404483,15.6362069 4.29503873,15.6539871 C4.27361134,15.6581897 4.25185429,15.6604526 4.2304269,15.6604526 C4.16251854,15.6604526 4.0959288,15.6400862 4.03988792,15.6009698 L2.69556618,14.6663793 C2.54689303,14.5632543 2.51194989,14.3612069 2.6174386,14.2157328 C2.72226801,14.0696121 2.92797099,14.0356681 3.07697379,14.1387931 L4.13647602,14.8752155 L5.57178177,12.6229526 C5.66804022,12.4716595 5.87110598,12.425431 6.02604253,12.5201509 C6.17966046,12.6145474 6.22680073,12.8140086 6.13021263,12.9653017 Z" id="Shape"></path>
            </g>
        </g>
    </g>
</svg>